<svg id="Calque_1" data-name="Calque 1" xmlns="http://www.w3.org/2000/svg" xmlns:xlink="http://www.w3.org/1999/xlink" viewBox="0 0 500 500"><defs><style>.cls-1{fill:none;}.cls-2{fill:#e86c43;}.cls-2,.cls-4{stroke:#b94f21;stroke-linecap:square;stroke-width:0.75px;}.cls-3{fill:#292626;}.cls-4{fill:#eb825a;}.cls-5{fill:url(#Couleur_Tissage);}.cls-6{fill:#fff;opacity:0.79;}.cls-7,.cls-8{fill:#f7931e;}.cls-8{font-size:149.42px;font-family:ArialRoundedMTBold, Arial Rounded MT Bold;}.cls-9{stroke:#000;stroke-miterlimit:10;stroke-width:4px;}</style><pattern id="Couleur_Tissage" data-name="Couleur Tissage" y="-1" width="80" height="67.5" patternUnits="userSpaceOnUse" viewBox="0 0 80 67.5"><rect class="cls-1" width="80" height="67.5"/><polygon class="cls-2" points="77.43 83.22 81.33 85.47 85.22 83.22 85.22 69.72 96.91 62.97 96.91 58.47 93.02 56.22 81.33 62.97 69.63 56.22 65.74 58.47 65.74 62.97 77.43 69.72 77.43 83.22"/><polygon class="cls-3" points="55.88 62.97 55.88 71.97 48.09 67.47 55.88 62.97"/><polygon class="cls-3" points="63.68 62.97 63.68 71.97 71.47 67.47 63.68 62.97"/><polygon class="cls-3" points="16.91 62.97 16.91 71.97 9.11 67.47 16.91 62.97"/><polygon class="cls-3" points="24.7 62.97 24.7 71.97 32.5 67.47 24.7 62.97"/><polyline class="cls-2" points="55.88 58.47 55.88 71.97 59.78 74.22 63.68 71.97 63.68 58.47"/><polygon class="cls-4" points="55.88 94.47 59.78 96.72 63.68 94.47 63.68 80.97 75.37 74.22 75.37 69.72 71.47 67.47 59.78 74.22 48.09 67.47 44.19 69.72 44.19 74.22 55.88 80.97 55.88 94.47"/><polyline class="cls-2" points="16.91 58.47 16.91 71.97 20.81 74.22 24.7 71.97 24.7 58.47"/><polygon class="cls-4" points="16.91 94.47 20.81 96.72 24.7 94.47 24.7 80.97 36.39 74.22 36.39 69.72 32.5 67.47 20.81 74.22 9.11 67.47 5.22 69.72 5.22 74.22 16.91 80.97 16.91 94.47"/><polygon class="cls-2" points="36.39 83.22 40.29 85.47 44.19 83.22 44.19 69.72 55.88 62.97 55.88 58.47 51.98 56.22 40.29 62.97 28.6 56.22 24.7 58.47 24.7 62.97 36.39 69.72 36.39 83.22"/><polygon class="cls-2" points="-2.57 83.22 1.32 85.47 5.22 83.22 5.22 69.72 16.91 62.97 16.91 58.47 13.02 56.22 1.32 62.97 -10.37 56.22 -14.26 58.47 -14.26 62.97 -2.57 69.72 -2.57 83.22"/><polygon class="cls-2" points="75.36 83.22 79.25 85.47 83.15 83.22 83.15 69.72 94.84 62.97 94.84 58.47 90.94 56.22 79.25 62.97 67.56 56.22 63.67 58.47 63.67 62.97 75.36 69.72 75.36 83.22"/><polygon class="cls-2" points="-4.64 83.22 -0.74 85.47 3.15 83.22 3.15 69.72 14.84 62.97 14.84 58.47 10.95 56.22 -0.74 62.97 -12.44 56.22 -16.33 58.47 -16.33 62.97 -4.64 69.72 -4.64 83.22"/><polyline class="cls-2" points="85.21 80.97 85.21 69.72 96.9 62.97 96.9 58.47 93.01 56.22 81.32 62.97 69.63 56.22 65.73 58.47 65.73 62.97 77.42 69.72 77.42 80.97"/><polygon class="cls-4" points="77.43 60.72 81.33 62.97 85.22 60.72 85.22 47.22 96.92 40.47 96.92 35.97 93.02 33.72 81.33 40.47 69.64 33.72 65.74 35.97 65.74 40.47 77.43 47.22 77.43 60.72"/><polygon class="cls-2" points="77.43 38.22 81.33 40.47 85.22 38.22 85.22 24.72 96.92 17.97 96.92 13.47 93.02 11.22 81.33 17.97 69.64 11.22 65.74 13.47 65.74 17.97 77.43 24.72 77.43 38.22"/><polygon class="cls-2" points="77.43 15.72 81.33 17.97 85.22 15.72 85.22 2.22 96.91 -4.53 96.91 -9.03 93.02 -11.29 81.33 -4.53 69.63 -11.29 65.74 -9.03 65.74 -4.53 77.43 2.22 77.43 15.72"/><polygon class="cls-3" points="55.88 -4.53 55.88 4.47 48.09 -0.03 55.88 -4.53"/><polygon class="cls-3" points="63.68 -4.53 63.68 4.47 71.47 -0.03 63.68 -4.53"/><polygon class="cls-3" points="16.91 -4.53 16.91 4.47 9.11 -0.03 16.91 -4.53"/><polygon class="cls-3" points="24.7 -4.53 24.7 4.47 32.5 -0.03 24.7 -4.53"/><polygon class="cls-3" points="55.88 17.96 55.88 26.96 48.09 22.46 55.88 17.96"/><polygon class="cls-3" points="63.68 17.97 63.68 26.97 71.47 22.47 63.68 17.97"/><polygon class="cls-3" points="16.91 17.97 16.91 26.97 9.11 22.47 16.91 17.97"/><polygon class="cls-3" points="24.7 17.97 24.7 26.97 32.5 22.47 24.7 17.97"/><polygon class="cls-3" points="55.88 40.46 55.88 49.46 48.09 44.96 55.88 40.46"/><polygon class="cls-3" points="63.68 40.47 63.68 49.47 71.47 44.97 63.68 40.47"/><polygon class="cls-3" points="16.91 40.47 16.91 49.47 9.11 44.97 16.91 40.47"/><polygon class="cls-3" points="24.7 40.47 24.7 49.47 32.5 44.97 24.7 40.47"/><polygon class="cls-3" points="55.88 62.96 55.88 71.96 48.09 67.46 55.88 62.96"/><polygon class="cls-3" points="63.68 62.96 63.68 71.96 71.47 67.46 63.68 62.96"/><polygon class="cls-3" points="16.91 62.96 16.91 71.96 9.11 67.46 16.91 62.96"/><polygon class="cls-3" points="24.7 62.96 24.7 71.96 32.5 67.46 24.7 62.96"/><polygon class="cls-3" points="75.37 6.72 75.37 15.72 67.58 11.22 75.37 6.72"/><polygon class="cls-3" points="36.4 6.72 36.4 15.72 28.6 11.22 36.4 6.72"/><polygon class="cls-3" points="44.19 6.72 44.19 15.72 51.99 11.22 44.19 6.72"/><polygon class="cls-3" points="75.37 29.22 75.37 38.22 67.58 33.72 75.37 29.22"/><polygon class="cls-3" points="36.4 29.22 36.4 38.22 28.6 33.72 36.4 29.22"/><polygon class="cls-3" points="44.19 29.22 44.19 38.22 51.99 33.72 44.19 29.22"/><polygon class="cls-3" points="75.37 51.72 75.37 60.72 67.58 56.22 75.37 51.72"/><polygon class="cls-3" points="36.4 51.72 36.4 60.72 28.6 56.22 36.4 51.72"/><polygon class="cls-3" points="44.19 51.72 44.19 60.72 51.99 56.22 44.19 51.72"/><polygon class="cls-3" points="5.22 6.72 5.22 15.72 13.01 11.22 5.22 6.72"/><polygon class="cls-3" points="5.22 29.22 5.22 38.22 13.01 33.72 5.22 29.22"/><polygon class="cls-3" points="5.22 51.72 5.22 60.72 13.01 56.22 5.22 51.72"/><polygon class="cls-4" points="36.4 60.72 40.3 62.97 44.19 60.72 44.19 47.22 55.88 40.47 55.88 35.97 51.98 33.72 40.3 40.47 28.6 33.72 24.71 35.97 24.71 40.47 36.4 47.22 36.4 60.72"/><polygon class="cls-2" points="55.88 71.97 59.78 74.22 63.68 71.97 63.68 58.47 75.37 51.72 75.37 47.22 71.47 44.97 59.78 51.72 48.09 44.97 44.19 47.22 44.19 51.72 55.88 58.47 55.88 71.97"/><polyline class="cls-4" points="63.68 80.97 75.37 74.22 75.37 69.72 71.47 67.47 59.78 74.22 48.09 67.47 44.19 69.72 44.19 74.22 55.88 80.97"/><polygon class="cls-2" points="16.91 71.97 20.81 74.22 24.71 71.97 24.71 58.47 36.4 51.72 36.4 47.22 32.5 44.97 20.81 51.72 9.12 44.97 5.22 47.22 5.22 51.72 16.91 58.47 16.91 71.97"/><polyline class="cls-4" points="24.71 80.97 36.4 74.22 36.4 69.72 32.5 67.47 20.81 74.22 9.12 67.47 5.22 69.72 5.22 74.22 16.91 80.97"/><polygon class="cls-2" points="16.91 49.47 20.81 51.72 24.71 49.47 24.71 35.97 36.4 29.22 36.4 24.72 32.5 22.47 20.81 29.22 9.12 22.47 5.22 24.72 5.22 29.22 16.91 35.97 16.91 49.47"/><polyline class="cls-2" points="44.19 80.97 44.19 69.72 55.88 62.97 55.88 58.47 51.98 56.22 40.3 62.97 28.6 56.22 24.71 58.47 24.71 62.97 36.4 69.72 36.4 80.97"/><polyline class="cls-2" points="5.21 80.97 5.21 69.72 16.9 62.97 16.9 58.47 13.01 56.22 1.32 62.97 -10.38 56.22 -14.27 58.47 -14.27 62.97 -2.58 69.72 -2.58 80.97"/><polygon class="cls-2" points="55.88 49.47 59.78 51.72 63.68 49.47 63.68 35.97 75.37 29.22 75.37 24.72 71.47 22.47 59.78 29.22 48.09 22.47 44.19 24.72 44.19 29.22 55.88 35.97 55.88 49.47"/><polygon class="cls-2" points="36.4 38.22 40.3 40.47 44.19 38.22 44.19 24.72 55.88 17.97 55.88 13.47 51.98 11.22 40.3 17.97 28.6 11.22 24.71 13.47 24.71 17.97 36.4 24.72 36.4 38.22"/><polyline class="cls-2" points="55.88 -9.03 55.88 4.47 59.78 6.72 63.68 4.47 63.68 -9.03"/><polygon class="cls-4" points="55.88 26.97 59.78 29.22 63.68 26.97 63.68 13.47 75.37 6.72 75.37 2.22 71.47 -0.03 59.78 6.72 48.09 -0.03 44.19 2.22 44.19 6.72 55.88 13.47 55.88 26.97"/><polyline class="cls-2" points="16.91 -9.03 16.91 4.47 20.81 6.72 24.7 4.47 24.7 -9.03"/><polygon class="cls-4" points="16.91 26.97 20.81 29.22 24.7 26.97 24.7 13.47 36.39 6.72 36.39 2.22 32.5 -0.03 20.81 6.72 9.11 -0.03 5.22 2.22 5.22 6.72 16.91 13.47 16.91 26.97"/><polygon class="cls-2" points="36.39 15.72 40.29 17.97 44.19 15.72 44.19 2.22 55.88 -4.53 55.88 -9.03 51.98 -11.29 40.29 -4.53 28.6 -11.29 24.7 -9.03 24.7 -4.53 36.39 2.22 36.39 15.72"/><polygon class="cls-4" points="-2.57 60.72 1.33 62.97 5.22 60.72 5.22 47.22 16.92 40.47 16.92 35.97 13.02 33.72 1.33 40.47 -10.36 33.72 -14.26 35.97 -14.26 40.47 -2.57 47.22 -2.57 60.72"/><polygon class="cls-2" points="-2.57 38.22 1.33 40.47 5.22 38.22 5.22 24.72 16.92 17.97 16.92 13.47 13.02 11.22 1.33 17.97 -10.36 11.22 -14.26 13.47 -14.26 17.97 -2.57 24.72 -2.57 38.22"/><polygon class="cls-2" points="-2.57 15.72 1.32 17.97 5.22 15.72 5.22 2.22 16.91 -4.53 16.91 -9.03 13.02 -11.29 1.32 -4.53 -10.37 -11.29 -14.26 -9.03 -14.26 -4.53 -2.57 2.22 -2.57 15.72"/><polyline class="cls-2" points="83.14 80.97 83.14 69.72 94.83 62.97 94.83 58.47 90.94 56.22 79.25 62.97 67.56 56.22 63.66 58.47 63.66 62.97 75.35 69.72 75.35 80.97"/><polygon class="cls-4" points="75.36 60.72 79.26 62.97 83.15 60.72 83.15 47.22 94.85 40.47 94.85 35.97 90.95 33.72 79.26 40.47 67.57 33.72 63.67 35.97 63.67 40.47 75.36 47.22 75.36 60.72"/><polygon class="cls-2" points="75.36 38.22 79.26 40.47 83.15 38.22 83.15 24.72 94.85 17.97 94.85 13.47 90.95 11.22 79.26 17.97 67.57 11.22 63.67 13.47 63.67 17.97 75.36 24.72 75.36 38.22"/><polygon class="cls-2" points="75.36 15.72 79.25 17.97 83.15 15.72 83.15 2.22 94.84 -4.53 94.84 -9.03 90.94 -11.29 79.25 -4.53 67.56 -11.29 63.67 -9.03 63.67 -4.53 75.36 2.22 75.36 15.72"/><polyline class="cls-2" points="3.14 80.97 3.14 69.72 14.83 62.97 14.83 58.47 10.94 56.22 -0.75 62.97 -12.45 56.22 -16.34 58.47 -16.34 62.97 -4.65 69.72 -4.65 80.97"/><polygon class="cls-4" points="-4.64 60.72 -0.74 62.97 3.15 60.72 3.15 47.22 14.85 40.47 14.85 35.97 10.95 33.72 -0.74 40.47 -12.43 33.72 -16.33 35.97 -16.33 40.47 -4.64 47.22 -4.64 60.72"/><polygon class="cls-2" points="-4.64 38.22 -0.74 40.47 3.15 38.22 3.15 24.72 14.85 17.97 14.85 13.47 10.95 11.22 -0.74 17.97 -12.43 11.22 -16.33 13.47 -16.33 17.97 -4.64 24.72 -4.64 38.22"/><polygon class="cls-2" points="-4.64 15.72 -0.74 17.97 3.15 15.72 3.15 2.22 14.84 -4.53 14.84 -9.03 10.95 -11.29 -0.74 -4.53 -12.44 -11.29 -16.33 -9.03 -16.33 -4.53 -4.64 2.22 -4.64 15.72"/><polyline class="cls-2" points="85.21 13.47 85.21 2.21 96.9 -4.53 96.9 -9.03 93.01 -11.28 81.32 -4.53 69.63 -11.28 65.73 -9.03 65.73 -4.53 77.42 2.21 77.42 13.47"/><polygon class="cls-3" points="55.88 -4.54 55.88 4.46 48.09 -0.04 55.88 -4.54"/><polygon class="cls-3" points="63.68 -4.54 63.68 4.46 71.47 -0.04 63.68 -4.54"/><polygon class="cls-3" points="16.91 -4.54 16.91 4.46 9.11 -0.04 16.91 -4.54"/><polygon class="cls-3" points="24.7 -4.54 24.7 4.46 32.5 -0.04 24.7 -4.54"/><polygon class="cls-2" points="55.88 4.46 59.78 6.71 63.68 4.46 63.68 -9.03 75.37 -15.78 75.37 -20.28 71.47 -22.53 59.78 -15.78 48.09 -22.53 44.19 -20.28 44.19 -15.78 55.88 -9.03 55.88 4.46"/><polyline class="cls-4" points="63.68 13.46 75.37 6.71 75.37 2.21 71.47 -0.03 59.78 6.71 48.09 -0.03 44.19 2.21 44.19 6.71 55.88 13.46"/><polygon class="cls-2" points="16.91 4.47 20.81 6.72 24.71 4.47 24.71 -9.03 36.4 -15.78 36.4 -20.28 32.5 -22.53 20.81 -15.78 9.12 -22.53 5.22 -20.28 5.22 -15.78 16.91 -9.03 16.91 4.47"/><polyline class="cls-4" points="24.71 13.47 36.4 6.71 36.4 2.21 32.5 -0.03 20.81 6.72 9.12 -0.03 5.22 2.22 5.22 6.72 16.91 13.47"/><polyline class="cls-2" points="44.19 13.47 44.19 2.21 55.88 -4.53 55.88 -9.03 51.98 -11.28 40.3 -4.53 28.6 -11.28 24.71 -9.03 24.71 -4.53 36.4 2.21 36.4 13.47"/><polyline class="cls-2" points="5.21 13.47 5.21 2.21 16.9 -4.53 16.9 -9.03 13.01 -11.28 1.32 -4.53 -10.38 -11.28 -14.27 -9.03 -14.27 -4.53 -2.58 2.21 -2.58 13.47"/><polyline class="cls-2" points="83.14 13.47 83.14 2.21 94.83 -4.53 94.83 -9.03 90.94 -11.28 79.25 -4.53 67.56 -11.28 63.66 -9.03 63.66 -4.53 75.35 2.21 75.35 13.47"/><polyline class="cls-2" points="3.14 13.47 3.14 2.21 14.83 -4.53 14.83 -9.03 10.94 -11.28 -0.75 -4.53 -12.45 -11.28 -16.34 -9.03 -16.34 -4.53 -4.65 2.21 -4.65 13.47"/></pattern></defs><title>Logo</title><rect class="cls-5" width="500" height="500"/><rect class="cls-6" x="20" y="19" width="441" height="437"/><path class="cls-7" d="M171,257.33l14.69-8.62a3,3,0,0,0,1.08-4.11l-4-6.92a28.27,28.27,0,0,0,1.69-2.61,21.4,21.4,0,0,1,1.38-2.34h7.94a10.87,10.87,0,0,0,2.1-1.36,5.93,5.93,0,0,0,.92-2.13V212.1a6.3,6.3,0,0,0-1-2.12,2.71,2.71,0,0,0-2.1-.82h-8a28.16,28.16,0,0,0-3.1-5.38l3.95-7a3,3,0,0,0-1.1-4.1l-14.76-8.51a2.93,2.93,0,0,0-2.26-.29,3,3,0,0,0-1.81,1.4l-4,7a28.1,28.1,0,0,0-6.15,0l-4-6.92a3,3,0,0,0-1.82-1.4,3,3,0,0,0-2.26.31l-14.69,8.63a3,3,0,0,0-1.08,4.11l4,6.92a26.1,26.1,0,0,0-1.68,2.6,16.63,16.63,0,0,0-1.38,3h-7.95c-1.64-.22-2.9,2.79-2.9,2.79v17.14a5.54,5.54,0,0,0,.88,2.12,2.16,2.16,0,0,0,2.1.66h8a24.94,24.94,0,0,0,3.1,5.54l-3.95,7a3,3,0,0,0-.29,2.28,3,3,0,0,0,1.4,1.82l14.75,8.51a3,3,0,0,0,4.07-1.11l3.95-7a28.19,28.19,0,0,0,6.16,0l4,6.93a3,3,0,0,0,4.07,1.08ZM167,244.53a3,3,0,0,0-3.14-1.44,22.16,22.16,0,0,1-8.2,0,3,3,0,0,0-3.12,1.46l-3.48,6.12-9.57-5.52,3.47-6.12a3,3,0,0,0-.32-3.46,22.55,22.55,0,0,1-4.14-7.14,2.47,2.47,0,0,0-2.81-1.73h-7V215.16h7a2.63,2.63,0,0,0,2.81-1.83,21.55,21.55,0,0,1,4.07-7.18,3,3,0,0,0,.31-3.46l-3.52-6.09,9.53-5.6,3.52,6.09a3,3,0,0,0,3.13,1.44,22.43,22.43,0,0,1,8.21,0,3,3,0,0,0,3.12-1.47l3.48-6.12,9.57,5.52-3.47,6.13a3,3,0,0,0,.33,3.45,22.64,22.64,0,0,1,4.13,7.15,4.31,4.31,0,0,0,2.81,2.42h7.11V226.3h-7.06a2.93,2.93,0,0,0-2.8,2,22.37,22.37,0,0,1-1.7,3.79,22.79,22.79,0,0,1-2.38,3.4,3,3,0,0,0-.3,3.46l3.52,6.08-9.54,5.6Z" transform="translate(0 -1)"/><path class="cls-7" d="M173.69,228.89a16.34,16.34,0,0,0-6-22.19,16,16,0,0,0-22,6,16.35,16.35,0,0,0,6,22.18,16,16,0,0,0,8,2.15A16.18,16.18,0,0,0,173.69,228.89Zm-5.18-3a10.1,10.1,0,0,1-13.87,3.8,10.3,10.3,0,0,1-3.77-14,10.19,10.19,0,0,1,8.83-5.16,10.19,10.19,0,0,1,9.8,7.56A10.26,10.26,0,0,1,168.51,225.9Z" transform="translate(0 -1)"/><path d="M138,195.5l34.54-20.28a7.11,7.11,0,0,0,2.53-9.67l-9.4-16.26a63.77,63.77,0,0,0,4-6.13,52.52,52.52,0,0,1,3.25-5.5h18.67c1.86-1.13,3.64-1.88,5-3.21s2.15-5,2.15-5V89.15s-1-3.67-2.34-5a6.46,6.46,0,0,0-4.93-1.94H172.65a66.47,66.47,0,0,0-7.3-12.64l9.3-16.36A7.11,7.11,0,0,0,172,43.57l-34.69-20a7,7,0,0,0-9.56,2.63l-9.3,16.36A66.66,66.66,0,0,0,104,42.6L94.61,26.31A7,7,0,0,0,90.34,23a6.93,6.93,0,0,0-5.32.73L50.48,44A7.1,7.1,0,0,0,48,53.7L57.35,70a67.23,67.23,0,0,0-4,6.13,39.7,39.7,0,0,0-3.23,7.13H31.48c-3.88-.5-6.84,6.58-6.84,6.58V130.1s.75,3.67,2.07,5a5.07,5.07,0,0,0,4.94,1.56H50.38a58.7,58.7,0,0,0,7.29,13L48.38,166a7.08,7.08,0,0,0,2.6,9.65l34.69,20a6.93,6.93,0,0,0,3.47.93,7,7,0,0,0,6.1-3.56l9.29-16.37a65.94,65.94,0,0,0,14.46,0L128.4,193A7,7,0,0,0,138,195.5Zm-9.27-30.1a7,7,0,0,0-7.38-3.38,52.55,52.55,0,0,1-19.29.06,7,7,0,0,0-7.33,3.44l-8.18,14.4L64,166.93l8.17-14.4a7.1,7.1,0,0,0-.77-8.12,53.1,53.1,0,0,1-9.72-16.8,5.8,5.8,0,0,0-6.6-4.06H38.64V96.33H55a6.15,6.15,0,0,0,6.6-4.3,51.22,51.22,0,0,1,9.58-16.88A7.11,7.11,0,0,0,71.87,67L63.6,52.7,86,39.53l8.27,14.32a7,7,0,0,0,7.37,3.39,52.61,52.61,0,0,1,19.3-.06,7,7,0,0,0,7.34-3.44l8.17-14.4,22.52,13-8.17,14.4a7.1,7.1,0,0,0,.77,8.12,53.31,53.31,0,0,1,9.72,16.81c1,2.81,3.65,4.68,6.61,5.68h16.72v25.2H168a6.89,6.89,0,0,0-6.59,4.67,51.45,51.45,0,0,1-9.6,16.92,7.11,7.11,0,0,0-.71,8.12l8.28,14.31L137,179.73Z" transform="translate(0 -1)"/><path d="M144.42,128.62a38.41,38.41,0,0,0-14.07-52.17A37.75,37.75,0,0,0,78.59,90.64,38.44,38.44,0,0,0,92.67,142.8a37.71,37.71,0,0,0,51.75-14.18Zm-12.17-7a23.79,23.79,0,0,1-32.62,8.95,24.24,24.24,0,0,1-8.87-32.88,24,24,0,0,1,20.78-12.13,23.93,23.93,0,0,1,23,17.78A24.11,24.11,0,0,1,132.25,121.59Z" transform="translate(0 -1)"/><path d="M119.81,380.25l28.59-16.78a5.86,5.86,0,0,0,2.69-3.56,5.93,5.93,0,0,0-.6-4.44L142.71,342a52.63,52.63,0,0,0,3.28-5.07,42.07,42.07,0,0,1,2.68-4.55h15.45a20.73,20.73,0,0,0,4.1-2.66c1.09-1.1,1.78-4.14,1.78-4.14V292.24s-.84-3-1.93-4.13a5.31,5.31,0,0,0-4.09-1.6H148.49a54.61,54.61,0,0,0-6-10.46l7.7-13.54a5.89,5.89,0,0,0-2.16-8L119.28,238a5.76,5.76,0,0,0-7.91,2.17l-7.7,13.55a55.06,55.06,0,0,0-12,0l-7.79-13.48A5.77,5.77,0,0,0,76,238.12L47.39,254.91a5.87,5.87,0,0,0-2.09,8l7.77,13.46a53.9,53.9,0,0,0-3.27,5.07,32.26,32.26,0,0,0-2.68,5.9H31.66c-3.2-.41-5.66,5.45-5.66,5.45v33.34s.62,3,1.72,4.13a4.19,4.19,0,0,0,4.08,1.29H47.3a48.92,48.92,0,0,0,6,10.78l-7.69,13.54a5.87,5.87,0,0,0,2.15,8l28.71,16.56a5.78,5.78,0,0,0,7.92-2.17l7.69-13.55a54.43,54.43,0,0,0,12,0l7.79,13.48a5.81,5.81,0,0,0,3.53,2.72A5.75,5.75,0,0,0,119.81,380.25Zm-7.68-24.9a5.79,5.79,0,0,0-6.1-2.81,43.46,43.46,0,0,1-16,.06A5.76,5.76,0,0,0,84,355.45l-6.77,11.91L58.6,356.61l6.76-11.91a5.87,5.87,0,0,0-.63-6.72,44,44,0,0,1-8.05-13.91,4.79,4.79,0,0,0-5.46-3.36H37.59V298.19H51.11a5.1,5.1,0,0,0,5.46-3.57,43.53,43.53,0,0,1,3.3-7.37,44.17,44.17,0,0,1,4.63-6.6,5.87,5.87,0,0,0,.59-6.72l-6.84-11.86L76.8,251.18,83.65,263a5.77,5.77,0,0,0,6.09,2.8,43.79,43.79,0,0,1,16-.05,5.78,5.78,0,0,0,6.07-2.85L118.55,251l18.64,10.75-6.77,11.91a5.89,5.89,0,0,0,.64,6.72,44.13,44.13,0,0,1,8.05,13.92c.83,2.32,3,3.87,5.47,4.7h13.83v20.86H144.68a5.69,5.69,0,0,0-5.45,3.86,44.74,44.74,0,0,1-3.31,7.39,44.18,44.18,0,0,1-4.64,6.61,5.89,5.89,0,0,0-.59,6.72l6.85,11.85L119,367.2Z" transform="translate(0 -1)"/><path d="M125.13,324.9a31.76,31.76,0,0,0-11.65-43.17,31.23,31.23,0,0,0-42.83,11.74A31.81,31.81,0,0,0,82.3,336.64a31.21,31.21,0,0,0,42.83-11.74Zm-10.07-5.81a19.83,19.83,0,0,1-17.19,10,19.6,19.6,0,0,1-9.8-2.64,20,20,0,0,1-7.34-27.21,19.81,19.81,0,0,1,17.19-10A19.81,19.81,0,0,1,117,304,19.94,19.94,0,0,1,115.06,319.09Z" transform="translate(0 -1)"/><text class="cls-8" transform="translate(271.59 151.48) scale(1.03 1)">H</text><path class="cls-7" d="M378.37,179.84a8.94,8.94,0,0,0-.86-2.31,3.15,3.15,0,0,0-1.38-1.33,4.42,4.42,0,0,0-1.91-.41h-81a11.12,11.12,0,0,0-5.74,1.59c-1.8,1.06-2.71,2.92-2.71,5.59V301.38c0,2.67.91,4.53,2.71,5.59a11,11,0,0,0,5.74,1.59h34.91l12.39-14.67H307.48V246.38h57.24a4.89,4.89,0,0,0,1.91-.36,3.29,3.29,0,0,0,1.45-1.18,5.38,5.38,0,0,0,.86-2.15,16.33,16.33,0,0,0,.26-3.18,18.7,18.7,0,0,0-.26-3.39,5.62,5.62,0,0,0-.86-2.26,4.33,4.33,0,0,0-1.45-1.28,3.94,3.94,0,0,0-1.91-.46H307.48V190.46h66.74a4.42,4.42,0,0,0,1.91-.41,3.2,3.2,0,0,0,1.38-1.28,8,8,0,0,0,.86-2.26,14,14,0,0,0,.33-3.23A15.12,15.12,0,0,0,378.37,179.84Z" transform="translate(0 -1)"/><path d="M379.76,301.28a17,17,0,0,1-.27,3.23,5.89,5.89,0,0,1-.92,2.31,4,4,0,0,1-1.52,1.33,4.28,4.28,0,0,1-1.91.41h-47l12.39-14.67h34.6a4.42,4.42,0,0,1,1.91.41,4.26,4.26,0,0,1,1.52,1.28,5.48,5.48,0,0,1,.92,2.26A18.44,18.44,0,0,1,379.76,301.28Z" transform="translate(0 -1)"/><path class="cls-7" d="M423.55,193.35l-14.08,20.17c-.1-46.08.06-100.78.53-165.52l44,82.72c-21.29-20-31-21.36-36-18.62C406.85,118.27,414.82,148,423.55,193.35Z" transform="translate(0 -1)"/><path class="cls-7" d="M285.67,323q.91,14,1.26,32.83c0,.5,0,1,0,1.51L307.5,333c0-.55.05-1.09.08-1.63.16-3.07.33-5.86.53-8.38Z" transform="translate(0 -1)"/><path d="M381.35,428.5l-.73,13.43H285.67q1.45-22.56,1.45-62.49,0-11.78-.17-22.11L307.5,333q-.83,17.58-.83,46.44,0,31.24-1.33,50.06Q341.54,429.5,381.35,428.5Z" transform="translate(0 -1)"/><path class="cls-9" d="M418.32,444c-3.64-.19-7-47.4-7.32-231.72L421.82,192c3.93,26.77,8.06,59,9.56,95C434.84,370.42,422.9,444.24,418.32,444Z" transform="translate(0 -1)"/></svg>